<mxfile host="app.diagrams.net" modified="2024-02-04T19:38:30.000Z" agent="Mozilla/5.0" version="21.6.6" etag="your-etag">
  <diagram name="Task Creation Flow" id="flow-diagram">
    <mxGraphModel dx="1422" dy="798" grid="1" gridSize="10" guides="1" tooltips="1" connect="1" arrows="1" fold="1" page="1" pageScale="1" pageWidth="850" pageHeight="1100">
      <root>
        <mxCell id="0"/>
        <mxCell id="1" parent="0"/>
        <mxCell id="2" value="Start" style="ellipse;whiteSpace=wrap;html=1;fillColor=#d5e8d4;strokeColor=#82b366;" vertex="1" parent="1">
          <mxGeometry x="360" y="80" width="120" height="80" as="geometry"/>
        </mxCell>
        <mxCell id="3" value="User fills task form" style="rounded=1;whiteSpace=wrap;html=1;fillColor=#dae8fc;strokeColor=#6c8ebf;" vertex="1" parent="1">
          <mxGeometry x="360" y="200" width="120" height="60" as="geometry"/>
        </mxCell>
        <mxCell id="4" value="Frontend validation" style="rhombus;whiteSpace=wrap;html=1;fillColor=#fff2cc;strokeColor=#d6b656;" vertex="1" parent="1">
          <mxGeometry x="360" y="300" width="120" height="120" as="geometry"/>
        </mxCell>
        <mxCell id="5" value="Send to API" style="rounded=1;whiteSpace=wrap;html=1;fillColor=#dae8fc;strokeColor=#6c8ebf;" vertex="1" parent="1">
          <mxGeometry x="360" y="460" width="120" height="60" as="geometry"/>
        </mxCell>
        <mxCell id="6" value="Backend validation" style="rhombus;whiteSpace=wrap;html=1;fillColor=#fff2cc;strokeColor=#d6b656;" vertex="1" parent="1">
          <mxGeometry x="360" y="560" width="120" height="120" as="geometry"/>
        </mxCell>
        <mxCell id="7" value="Save to database" style="rounded=1;whiteSpace=wrap;html=1;fillColor=#dae8fc;strokeColor=#6c8ebf;" vertex="1" parent="1">
          <mxGeometry x="360" y="720" width="120" height="60" as="geometry"/>
        </mxCell>
        <mxCell id="8" value="End" style="ellipse;whiteSpace=wrap;html=1;fillColor=#f8cecc;strokeColor=#b85450;" vertex="1" parent="1">
          <mxGeometry x="360" y="820" width="120" height="80" as="geometry"/>
        </mxCell>
        <mxCell id="9" value="" style="endArrow=classic;html=1;rounded=0;exitX=0.5;exitY=1;exitDx=0;exitDy=0;entryX=0.5;entryY=0;entryDx=0;entryDy=0;" edge="1" parent="1" source="2" target="3">
          <mxGeometry width="50" height="50" relative="1" as="geometry"/>
        </mxCell>
        <mxCell id="10" value="" style="endArrow=classic;html=1;rounded=0;exitX=0.5;exitY=1;exitDx=0;exitDy=0;entryX=0.5;entryY=0;entryDx=0;entryDy=0;" edge="1" parent="1" source="3" target="4">
          <mxGeometry width="50" height="50" relative="1" as="geometry"/>
        </mxCell>
        <mxCell id="11" value="" style="endArrow=classic;html=1;rounded=0;exitX=0.5;exitY=1;exitDx=0;exitDy=0;entryX=0.5;entryY=0;entryDx=0;entryDy=0;" edge="1" parent="1" source="4" target="5">
          <mxGeometry width="50" height="50" relative="1" as="geometry"/>
        </mxCell>
        <mxCell id="12" value="" style="endArrow=classic;html=1;rounded=0;exitX=0.5;exitY=1;exitDx=0;exitDy=0;entryX=0.5;entryY=0;entryDx=0;entryDy=0;" edge="1" parent="1" source="5" target="6">
          <mxGeometry width="50" height="50" relative="1" as="geometry"/>
        </mxCell>
        <mxCell id="13" value="" style="endArrow=classic;html=1;rounded=0;exitX=0.5;exitY=1;exitDx=0;exitDy=0;entryX=0.5;entryY=0;entryDx=0;entryDy=0;" edge="1" parent="1" source="6" target="7">
          <mxGeometry width="50" height="50" relative="1" as="geometry"/>
        </mxCell>
        <mxCell id="14" value="" style="endArrow=classic;html=1;rounded=0;exitX=0.5;exitY=1;exitDx=0;exitDy=0;entryX=0.5;entryY=0;entryDx=0;entryDy=0;" edge="1" parent="1" source="7" target="8">
          <mxGeometry width="50" height="50" relative="1" as="geometry"/>
        </mxCell>
        <mxCell id="15" value="Invalid" style="endArrow=classic;html=1;rounded=0;exitX=1;exitY=0.5;exitDx=0;exitDy=0;entryX=1;entryY=0.5;entryDx=0;entryDy=0;edgeStyle=orthogonalEdgeStyle;" edge="1" parent="1" source="4" target="3">
          <mxGeometry x="-0.2" y="10" relative="1" as="geometry">
            <Array as="points">
              <mxPoint x="520" y="360"/>
              <mxPoint x="520" y="230"/>
            </Array>
            <mxPoint as="offset"/>
          </mxGeometry>
        </mxCell>
        <mxCell id="16" value="Invalid" style="endArrow=classic;html=1;rounded=0;exitX=0;exitY=0.5;exitDx=0;exitDy=0;entryX=0;entryY=0.5;entryDx=0;entryDy=0;edgeStyle=orthogonalEdgeStyle;" edge="1" parent="1" source="6" target="3">
          <mxGeometry x="-0.6" y="-10" relative="1" as="geometry">
            <Array as="points">
              <mxPoint x="320" y="620"/>
              <mxPoint x="320" y="230"/>
            </Array>
            <mxPoint as="offset"/>
          </mxGeometry>
        </mxCell>
      </root>
    </mxGraphModel>
  </diagram>
</mxfile>
